<?xml version="1.0" encoding="UTF-8" standalone="no"?>
<!-- Created with Inkscape (http://www.inkscape.org/) -->

<svg
   xmlns:dc="http://purl.org/dc/elements/1.1/"
   xmlns:cc="http://creativecommons.org/ns#"
   xmlns:rdf="http://www.w3.org/1999/02/22-rdf-syntax-ns#"
   xmlns:svg="http://www.w3.org/2000/svg"
   xmlns="http://www.w3.org/2000/svg"
   xmlns:inkscape="http://www.inkscape.org/namespaces/inkscape"
   id="svg3123"
   version="1.1"
   inkscape:version="0.47 r22583"
   width="765"
   height="990"
   xml:space="preserve"><g
     id="g3133"
     inkscape:groupmode="layer"
     inkscape:label="ink_ext_XXXXXX"
     transform="matrix(1.25,0,0,-1.25,0,990)"><g
       id="g3135"
       transform="matrix(0.1,0,0,0.1,-177.6,256.8)"><path
         d="m 2856.87,5351.16 c -179.66,-6.41 -243.82,-156.13 -249.17,-166.82 -69.5,-114.41 -2.14,-247.01 -4.27,-252.36 -2.14,-5.34 -127.24,-69.5 -196.75,-132.6 -69.52,-63.09 -113.35,-122.97 -118.7,-122.97 -5.36,0 -96.25,149.71 -265.21,143.3 -168.94,-6.43 -249.16,-183.93 -247,-352.88 17.1,-270.55 274.81,-335.78 282.3,-337.92 7.48,-2.13 -12.83,-163.61 25.67,-331.5 38.5,-167.88 158.26,-346.46 158.26,-346.46 0,0 142.21,-201.04 356.08,-309.04 213.88,-108 384.97,-111.21 488.69,-111.21 103.73,0 266.27,20.31 452.34,116.55 186.06,96.24 276.96,219.22 298.34,247.02 78.07,86.62 134.75,212.8 139.01,220.28 4.28,7.49 29.94,11.77 45.98,14.98 16.05,3.21 31.01,25.66 44.91,20.31 13.91,-5.34 27.82,-19.24 52.41,-19.24 24.58,0 141.15,29.94 161.47,167.89 4.27,91.95 -66.31,137.95 -66.31,155.05 0,17.1 -17.1,48.12 -36.35,70.57 -19.25,22.46 -43.85,35.3 -53.48,42.78 -9.62,7.49 -26.73,32.08 -35.28,40.64 -8.55,8.54 -26.73,16.04 -27.79,22.45 -1.08,6.42 -1.08,125.11 -65.24,288.72 -64.16,163.62 -183.93,293 -228.83,338.99 -109.09,105.85 -233.13,175.36 -343.27,216.01 -110.14,40.62 -194.61,49.18 -199.96,54.51 -5.36,5.36 -6.41,99.46 -65.24,176.45 -7.48,10.7 -122.96,152.91 -302.61,146.5"
         style="fill:#231f20;fill-opacity:1;fill-rule:evenodd;stroke:none"
         id="path3137" /><path
         d="m 2609.85,4913.8 c -6.42,-2.14 -130.46,-72.71 -204.24,-139.01 -73.8,-66.31 -105.88,-106.93 -106.95,-112.28 -1.05,-5.35 31.02,-37.43 52.4,-104.8 21.4,-67.37 19.25,-116.55 25.67,-114.41 6.41,2.13 44.91,116.56 150.78,205.31 129.39,116.55 236.31,101.59 245.94,111.21 9.62,9.62 -40.63,19.25 -93.03,69.51 -52.39,50.26 -64.16,86.61 -70.57,84.47"
         style="fill:#ffffff;fill-opacity:1;fill-rule:evenodd;stroke:none"
         id="path3139" /><path
         d="m 2333.96,4223.01 c -7.49,-4.28 -56.68,-57.75 -124.05,-82.34 -67.37,-24.6 -119.77,-9.63 -129.39,-13.89 -9.63,-4.28 -20.31,-164.68 37.43,-375.35 57.74,-210.66 168.96,-340.05 217.07,-386.02 48.12,-45.99 131.53,-142.23 259.86,-202.11 146.5,-78.07 328.28,-116.56 330.42,-109.07 2.15,7.48 -11.75,32.08 -39.56,50.25 -27.81,18.18 -13.9,35.29 -23.53,39.57 -9.62,4.28 -120.83,6.41 -145.43,69.5 -24.59,63.09 -13.9,114.43 -8.55,142.24 8.55,49.18 48.13,119.75 87.69,181.77 39.55,62.03 57.74,126.19 58.8,133.68 1.08,7.48 -16.02,17.1 -26.73,24.58 -10.69,7.49 -9.62,17.11 -18.18,18.18 -8.56,1.07 -27.79,-8.56 -71.63,-5.34 -210.67,32.08 -229.92,147.57 -238.48,156.12 -8.56,8.55 -71.65,62.02 -120.83,170.02 -49.19,108.02 -37.43,192.49 -44.91,188.21"
         style="fill:#ffffff;fill-opacity:1;fill-rule:evenodd;stroke:none"
         id="path3141" /><path
         d="m 3223.64,5012.18 c -2.13,-11.77 -7.46,-80.2 -49.18,-149.71 -41.7,-69.51 -136.87,-105.86 -126.19,-114.41 10.69,-8.56 173.24,-55.61 247.02,-173.24 98.39,-136.87 95.17,-221.36 100.52,-228.83 5.35,-7.49 99.44,-9.63 100.52,-129.4 1.07,-119.77 -87.7,-220.29 -110.14,-252.36 -75.93,-94.09 -119.77,-110.14 -118.71,-115.49 1.08,-5.35 19.26,-8.54 27.81,-10.69 8.56,-2.14 56.68,29.94 118.7,57.75 62.02,27.8 133.66,29.93 139.01,34.21 5.35,4.28 3.21,56.68 47.05,103.72 43.84,47.06 95.17,51.34 103.72,56.68 8.56,5.35 60.96,75.93 181.8,83.41 72.71,5.34 155.05,-39.57 161.48,-38.5 6.41,1.08 -19.26,173.24 -82.35,310.11 -63.09,136.89 -167.89,274.82 -282.31,362.51 -153.98,136.88 -456.6,216.01 -458.75,204.24"
         style="fill:#ffffff;fill-opacity:1;fill-rule:evenodd;stroke:none"
         id="path3143" /><path
         d="m 2731.75,4714.91 c -115.49,-18.18 -126.19,-133.67 -131.53,-219.21 -5.34,-85.56 29.94,-222.43 75.93,-287.66 45.98,-65.22 128.31,-108 127.25,-112.28 -1.08,-4.28 -124.05,14.97 -204.24,-44.92 -80.21,-59.87 -86.63,-90.89 -85.55,-155.04 1.07,-64.16 103.72,-121.91 119.77,-132.6 90.89,-39.58 153.97,-37.43 157.18,-34.23 3.22,3.21 -19.23,25.67 -14.97,28.87 16.04,8.57 108,-99.44 166.83,-102.65 131.53,12.83 156.12,99.45 181.78,113.35 37.43,14.98 81.27,45.98 136.87,94.1 55.61,48.13 100.52,93.03 158.27,188.2 57.75,95.19 57.75,149.72 56.68,165.75 -7.5,97.31 -68.45,106.94 -104.81,108 -36.35,1.08 -71.64,-11.75 -78.05,-10.69 -6.42,1.07 24.59,69.52 -17.12,178.58 -41.7,109.07 -131.52,219.22 -196.75,208.52 -94.11,-16.03 -76.99,-164.67 -80.2,-168.95 -3.21,-4.28 -127.25,196.76 -267.34,182.86"
         style="fill:#fddcb5;fill-opacity:1;fill-rule:evenodd;stroke:none"
         id="path3145" /><path
         d="m 2892.15,4484.99 c -75.93,-23.51 -27.8,-161.46 -12.83,-216 52.39,-119.77 126.19,-167.89 130.46,-168.95 4.27,-1.07 -11.76,-26.74 -7.48,-29.94 4.27,-3.21 41.69,60.94 96.24,99.44 54.53,38.5 127.25,41.71 133.66,43.84 6.41,2.15 -48.12,4.28 -47.05,8.56 1.07,4.28 51.33,45.99 34.21,71.65 -10.68,1.06 3.21,-26.74 -60.94,-78.06 -8.56,-4.28 -41.71,-13.91 -64.16,-31.02 -22.46,-17.1 -40.64,-40.63 -47.06,-40.63 -6.41,0 8.57,83.41 -20.31,165.74 -5.34,16.05 -58.82,198.9 -134.74,175.37"
         style="fill:#231f20;fill-opacity:1;fill-rule:evenodd;stroke:none"
         id="path3147" /><path
         d="m 2894.3,4471.1 c -45.99,-6.42 -16.05,-134.74 -13.91,-148.64 17.11,-78.06 55.6,-137.95 59.88,-136.87 4.28,1.07 -12.83,48.12 20.32,55.6 33.15,7.49 65.22,-84.48 69.5,-83.4 4.28,1.06 -7.48,125.1 -40.63,198.89 -3.21,8.56 -49.19,120.84 -95.16,114.42"
         style="fill:#ffffff;fill-opacity:1;fill-rule:evenodd;stroke:none"
         id="path3149" /><path
         d="m 3156.27,4403.73 c -59.88,-11.77 -52.38,-104.8 -48.11,-106.93 4.28,-2.15 18.17,86.62 52.41,94.1 11.75,0 20.3,-7.49 23.51,-5.35 3.21,2.14 -1.07,17.11 -27.81,18.18"
         style="fill:#231f20;fill-opacity:1;fill-rule:evenodd;stroke:none"
         id="path3151" /><path
         d="m 3218.31,4314.97 c 2.13,3.21 -8.56,19.25 -25.68,17.12 -52.4,-4.28 -84.48,-104.8 -79.12,-106.94 5.34,-2.14 40.63,89.82 75.93,87.69 14.95,3.21 26.72,-1.07 28.87,2.13"
         style="fill:#231f20;fill-opacity:1;fill-rule:evenodd;stroke:none"
         id="path3153" /><path
         d="m 3317.75,4150.29 c -108.01,87.7 -318.66,-104.79 -248.08,-201.03 70.56,-96.24 349.67,93.03 248.08,201.03"
         style="fill:#231f20;fill-opacity:1;fill-rule:evenodd;stroke:none"
         id="path3155" /><path
         d="m 2833.34,3970.64 c -6.41,3.21 -41.71,1.07 -86.62,-28.87 -44.91,-29.94 -49.18,-70.58 -44.91,-73.78 4.27,-3.21 29.94,47.05 43.85,49.19 13.9,2.13 59.86,-96.25 69.5,-119.77 9.62,-23.52 64.16,-114.41 128.31,-113.35 64.17,1.07 137.96,64.16 149.72,81.28 11.76,17.1 37.42,43.84 47.04,48.12 9.63,4.27 45.99,8.56 155.06,97.31 100.52,88.75 116.57,195.68 118.7,211.71 1.06,60.97 -16.04,73.8 -13.9,80.21 2.14,6.41 27.8,-8.56 31.02,-4.28 3.2,4.28 -11.77,17.12 -36.36,18.18 -24.6,1.07 -40.64,-16.03 -38.5,-18.18 2.13,-2.13 16.04,3.21 24.59,3.21 8.56,0 20.32,-51.33 13.91,-93.03 -6.42,-41.7 -50.27,-145.43 -126.19,-201.04 -75.93,-55.61 -116.56,-94.09 -241.67,-102.65 -203.18,-3.2 -260.92,115.49 -264.12,126.18 -3.21,10.69 76.98,36.35 70.57,39.56"
         style="fill:#231f20;fill-opacity:1;fill-rule:evenodd;stroke:none"
         id="path3157" /><path
         d="m 2830.13,3816.66 c -7.48,-19.25 56.67,-114.42 119.77,-114.42 52.4,-1.08 105.87,42.78 111.21,50.26 5.34,7.49 -57.75,55.61 -106.93,29.95 -1.08,-4.29 14.97,-39.57 8.54,-40.64 -6.41,-1.07 -56.67,90.88 -132.59,74.85"
         style="fill:#952724;fill-opacity:1;fill-rule:evenodd;stroke:none"
         id="path3159" /><path
         d="m 2922.09,3637.01 c -5.34,-10.69 82.35,-113.35 87.69,-110.13 5.34,3.19 -82.34,120.83 -87.69,110.13"
         style="fill:#ffffff;fill-opacity:1;fill-rule:evenodd;stroke:none"
         id="path3161" /><path
         d="m 3128.48,3742.88 c 2.13,-7.48 78.06,43.83 73.78,47.05 -4.28,3.21 -75.92,-39.56 -73.78,-47.05"
         style="fill:#ffffff;fill-opacity:1;fill-rule:evenodd;stroke:none"
         id="path3163" /><path
         d="m 3011.92,3650.93 c -4.28,-1.09 -27.8,-32.09 -24.59,-42.79 3.2,-10.69 20.31,-40.62 21.38,-34.21 1.07,6.41 -3.2,9.62 -4.27,33.14 -1.08,23.53 11.74,44.92 7.48,43.86"
         style="fill:#ffffff;fill-opacity:1;fill-rule:evenodd;stroke:none"
         id="path3165" /><path
         d="m 3283.53,3629.53 c 2.14,-6.41 201.03,79.14 201.03,93.03 0,13.9 -203.16,-86.62 -201.03,-93.03"
         style="fill:#ffffff;fill-opacity:1;fill-rule:evenodd;stroke:none"
         id="path3167" /><path
         d="m 3029.02,3503.35 c -16.03,-4.28 -110.14,-145.43 -104.79,-151.85 5.35,-6.42 24.59,-7.48 32.08,-6.42 7.49,1.08 25.67,21.39 40.64,27.81 14.97,6.41 57.73,4.28 62.01,4.28 4.28,0 6.43,5.34 12.84,9.61 6.41,4.29 18.18,1.08 20.31,2.15 2.15,1.06 -47.04,118.7 -63.09,114.42"
         style="fill:#ffffff;fill-opacity:1;fill-rule:evenodd;stroke:none"
         id="path3169" /><path
         d="m 2916.75,3332.25 c 6.42,-4.27 -5.35,-21.37 -8.56,-20.32 -3.21,1.07 2.14,24.6 8.56,20.32"
         style="fill:#ffffff;fill-opacity:1;fill-rule:evenodd;stroke:none"
         id="path3171" /><path
         d="m 2980.91,3347.23 c 1.07,-6.43 114.41,-7.49 98.38,-109.08 -16.05,-120.84 -201.03,-86.62 -199.97,-99.44 1.07,-12.84 45.98,-51.34 108.01,-53.48 62.01,-2.12 115.49,51.33 124.03,68.45 8.56,17.1 8.56,176.43 -3.2,194.61 -11.77,18.18 -128.32,5.35 -127.25,-1.06"
         style="fill:#ffffff;fill-opacity:1;fill-rule:evenodd;stroke:none"
         id="path3173" /><path
         d="m 2946.68,3072.4 c 1.08,-6.42 17.12,-22.45 23.53,-25.67 6.41,-3.2 82.34,-1.07 104.8,-4.27 9.63,1.07 32.07,74.85 25.66,74.85 -6.41,0 -32.08,-28.87 -66.3,-39.56 -34.22,-10.69 -88.75,1.07 -87.69,-5.35"
         style="fill:#ffffff;fill-opacity:1;fill-rule:evenodd;stroke:none"
         id="path3175" /><path
         d="m 3113.51,3399.62 c 1.06,-6.42 31.01,-87.69 27.81,-176.44 -3.22,-88.75 -40.65,-168.96 -34.24,-176.45 6.43,-7.48 148.65,8.56 262,43.85 197.82,69.51 329.36,179.65 334.71,187.13 5.34,7.49 4.26,18.18 -2.15,21.4 -6.41,3.19 -19.25,-28.88 -21.38,-23.53 -2.14,5.35 10.69,93.03 -8.56,187.14 -43.84,173.22 -148.64,242.73 -156.12,234.18 -7.48,-8.56 -42.78,-132.61 -146.5,-220.29 -141.15,-120.84 -256.64,-70.59 -255.57,-76.99"
         style="fill:#ed1c24;fill-opacity:1;fill-rule:evenodd;stroke:none"
         id="path3177" /><path
         d="m 3437.52,3473.4 c -72.72,-55.6 35.28,-322.94 109.07,-261.99 73.79,60.96 -48.11,314.39 -109.07,261.99"
         style="fill:#231f20;fill-opacity:1;fill-rule:evenodd;stroke:none"
         id="path3179" /><path
         d="m 3445,3465.91 c -45.98,-13.89 29.94,-272.67 90.89,-248.08 60.97,24.6 -29.94,266.27 -90.89,248.08"
         style="fill:#ffffff;fill-opacity:1;fill-rule:evenodd;stroke:none"
         id="path3181" /><path
         d="m 3543.39,3625.25 c -34.23,-21.38 68.42,-237.39 106.91,-201.03 38.5,36.35 -66.28,228.82 -106.91,201.03"
         style="fill:#231f20;fill-opacity:1;fill-rule:evenodd;stroke:none"
         id="path3183" /><path
         d="m 3549.8,3618.84 c -11.77,-14.97 66.3,-198.9 91.96,-185 25.67,13.89 -65.23,204.25 -91.96,185"
         style="fill:#ffffff;fill-opacity:1;fill-rule:evenodd;stroke:none"
         id="path3185" /><path
         d="m 3526.27,3738.59 c -2.13,-4.27 16.04,-5.33 14.97,0 -1.07,5.35 -12.83,4.3 -14.97,0 z"
         style="fill:none;stroke:#a21d94;stroke-width:10.00059986;stroke-linecap:butt;stroke-linejoin:miter;stroke-miterlimit:2.61310005;stroke-opacity:1;stroke-dasharray:none"
         id="path3187" /><path
         d="m 3517.71,3720.41 c 3.22,-5.33 95.18,-58.8 148.65,-176.43 33.15,-86.62 32.07,-198.9 35.28,-209.59 3.21,-10.69 13.9,-38.5 17.11,-40.64 3.21,-2.12 43.85,33.16 117.63,119.78 73.78,86.62 118.69,184.99 119.77,192.47 1.06,7.49 -47.06,-9.62 -93.03,-9.62 -114.42,3.21 -157.19,40.63 -162.55,40.63 -5.34,0 -50.27,-8.55 -112.28,29.95 -27.8,22.45 -32.07,54.53 -38.49,55.6 -6.42,1.06 -35.29,3.21 -32.09,-2.15"
         style="fill:#ffffff;fill-opacity:1;fill-rule:evenodd;stroke:none"
         id="path3189" /><path
         d="m 3639.62,3911.83 c 1.06,-10.69 132.59,-52.4 112.27,-130.46 -51.32,-133.66 -179.64,-60.96 -181.78,-66.3 -2.13,-5.35 45.99,-72.71 131.53,-65.23 85.54,7.48 115.49,50.26 122.98,119.77 -14.98,157.19 -186.07,152.93 -185,142.22"
         style="fill:#ffffff;fill-opacity:1;fill-rule:evenodd;stroke:none"
         id="path3191" /><path
         d="m 3888.78,4150.29 c -130.46,-8.56 -209.59,-102.65 -213.87,-102.65 -4.28,0 7.49,11.75 6.41,20.31 -1.06,8.56 -52.38,-20.31 -80.19,-63.09 -27.81,-42.76 -34.22,-67.37 -26.74,-78.06 7.48,-10.69 81.27,10.69 113.36,4.28 32.07,-6.41 142.21,-12.83 157.19,-158.26 -4.28,-122.98 -105.87,-121.89 -100.52,-137.94 5.34,-16.04 94.09,-17.12 127.24,-17.12 33.16,0 132.61,14.98 234.19,75.93 72.72,42.77 77,62.02 82.35,58.81 5.34,-3.21 -26.74,-27.8 -20.33,-35.29 6.42,-7.49 38.5,10.71 41.71,5.35 3.21,-5.35 -17.1,-22.46 -37.43,-23.53 -20.32,-1.07 -22.46,3.21 -34.22,0 -11.76,-3.21 -55.6,-34.22 -52.39,-41.71 3.2,-7.48 31.01,-9.61 51.32,-5.33 20.32,4.27 131.53,47.04 130.46,142.22 -1.06,95.17 -90.89,164.67 -90.89,170.02 0,5.35 16.03,-4.28 16.03,4.28 0,8.54 -20.31,48.12 -63.08,75.92 -42.78,27.8 -98.4,44.9 -98.38,49.19 0,4.28 55.6,-8.55 55.6,-5.34 0,3.2 -67.36,70.57 -197.82,62.01"
         style="fill:#ffffff;fill-opacity:1;fill-rule:evenodd;stroke:none"
         id="path3193" /><path
         d="m 3778.63,4035.88 c 2.14,-4.28 -70.57,-90.9 -72.71,-87.7 10.69,47.06 70.58,91.98 72.71,87.7"
         style="fill:#231f20;fill-opacity:1;fill-rule:evenodd;stroke:none"
         id="path3195" /><path
         d="m 3906.95,4013.43 c 2.14,-6.42 -155.06,-85.55 -157.19,-81.28 32.08,47.05 155.06,87.69 157.19,81.28"
         style="fill:#231f20;fill-opacity:1;fill-rule:evenodd;stroke:none"
         id="path3197" /><path
         d="m 3925.13,3919.31 c 2.14,-3.2 -95.17,-41.7 -96.24,-37.42 33.15,34.22 94.09,40.63 96.24,37.42"
         style="fill:#231f20;fill-opacity:1;fill-rule:evenodd;stroke:none"
         id="path3199" /></g></g></svg>
