<?xml version="1.0" encoding="UTF-8" standalone="no"?>
<!-- Created with Inkscape (http://www.inkscape.org/) -->

<svg
   xmlns:dc="http://purl.org/dc/elements/1.1/"
   xmlns:cc="http://creativecommons.org/ns#"
   xmlns:rdf="http://www.w3.org/1999/02/22-rdf-syntax-ns#"
   xmlns:svg="http://www.w3.org/2000/svg"
   xmlns="http://www.w3.org/2000/svg"
   xmlns:sodipodi="http://sodipodi.sourceforge.net/DTD/sodipodi-0.dtd"
   xmlns:inkscape="http://www.inkscape.org/namespaces/inkscape"
   id="svg3415"
   version="1.1"
   inkscape:version="0.47 r22583"
   width="765"
   height="990"
   xml:space="preserve"
   sodipodi:docname="pooh12.eps"><g
     id="g3425"
     inkscape:groupmode="layer"
     inkscape:label="ink_ext_XXXXXX"
     transform="matrix(1.25,0,0,-1.25,0,990)"><g
       id="g3427"
       transform="matrix(0.1,0,0,0.1,-182.4,304)"><path
         d="m 3900.79,3584.54 c -4.64,-67.36 -15.08,-145.71 -17.41,-144.55 -2.33,1.15 0.58,31.93 -4.64,113.2 -5.22,81.27 -25.54,130.05 -25.54,130.05 0,0 8.71,1.15 22.05,1.15 13.35,0 26.71,4.64 26.71,4.64 0,0 3.49,-37.14 -1.17,-104.49 z m -149.18,219.43 c -19.16,-9.29 -30.19,-17.99 -34.84,-18.57 -4.63,-0.57 -58.05,-5.81 -101.59,-48.19 -43.54,-42.38 -60.95,-101.01 -60.95,-101.01 l -16.25,22.07 c 0,0 0.57,15.67 0,31.35 -0.57,15.67 -6.96,27.28 -29.61,49.33 -22.64,22.06 -50.5,54.58 -52.25,57.47 -1.74,2.9 60.96,44.71 168.35,47.61 107.39,2.9 154.42,-28.45 154.42,-28.45 0,0 -8.13,-2.32 -27.28,-11.61 z m -132.36,-857.42 c -33.68,1.18 -51.67,31.35 -51.67,31.35 -1.74,1.74 30.19,0 33.09,-0.58 2.92,-0.59 12.77,-7.55 36.58,-11.61 23.81,-4.06 49.33,5.22 48.18,-1.17 -1.16,-6.4 -32.51,-19.16 -66.18,-17.99 z M 3209.4,4521.5 c -1.75,-2.9 -27.29,-2.33 -29.61,-1.16 -2.33,1.17 -12.19,13.35 -12.19,13.35 0,0 4.07,6.38 9.86,17.41 5.8,11.04 13.36,22.06 13.36,22.06 5.82,4.05 20.32,-48.77 18.58,-51.66 z m -48.18,-1.74 c -2.9,0.58 1.74,7.54 1.74,7.54 2.33,1.75 4.64,-7.54 4.64,-7.54 0,0 -3.48,-0.59 -6.38,0 z m -5.24,109.72 c 0.87,-10.44 -26.13,-60.08 -26.13,-60.08 0,0 -26.99,24.39 -78.36,45.28 -51.38,20.9 -90.56,12.19 -89.7,8.71 0.88,-3.48 43.55,0 77.51,-12.19 33.96,-12.19 83.59,-39.18 84.46,-47.02 0.87,-7.84 -33.96,-52.25 -33.96,-52.25 0,0 -20.03,0 -58.34,-15.67 -38.32,-15.68 -46.15,-26.13 -46.15,-26.13 0,0 -12.19,1.75 -25.26,-6.09 -13.06,-7.84 -26.12,-18.29 -33.96,-52.25 -7.83,-33.95 -27.86,-105.36 -27.86,-105.36 l -11.32,-11.32 c 0,0 -26.12,67.05 -44.41,107.1 -18.29,40.06 -34.84,61.83 -68.8,52.25 -33.95,-9.58 -60.08,-54.86 -56.59,-139.33 3.48,-84.46 29.6,-136.71 29.6,-136.71 l -14.8,-11.32 c 0,0 -33.09,37.45 -58.34,68.79 -25.26,31.35 -41.8,54 -70.54,67.06 -28.73,13.05 -70.53,-12.2 -70.53,-12.2 0,0 -23.51,-4.36 -49.63,-12.19 -26.13,-7.83 -65.31,-20.02 -131.49,-71.4 -66.18,-51.38 -91.43,-73.15 -142.81,-143.68 -51.37,-70.54 -72.27,-134.1 -72.27,-134.1 0,0 -1.75,-5.23 -10.45,-13.93 -8.71,-8.71 -7.84,-20.9 -7.84,-20.9 0,0 -4.36,0 -41.8,0.87 -37.44,0.87 -120.17,20.9 -160.22,60.08 -40.06,39.19 -31.35,105.37 -6.97,172.42 24.38,67.05 75.76,161.97 143.68,239.46 67.92,77.5 168.06,156.74 245.56,218.57 77.5,61.82 261.23,150.64 368.34,187.22 107.1,36.56 214.32,57.59 308.26,53.11 91.43,-4.35 147.16,-31.35 176.76,-72.27 29.61,-40.92 12.2,-107.98 9.58,-113.21 -2.61,-5.22 -47.89,45.29 -47.89,39.19 0,-6.1 41.8,-40.06 42.67,-50.51 z m -103.32,-705.34 c 0,0 -18.57,7.55 -66.75,25.54 -48.18,17.98 -99.27,37.74 -138.17,78.37 -38.9,40.63 -78.96,91.74 -78.96,91.74 l 9.29,9.85 c 0,0 15.68,-19.73 42.96,-32.5 27.28,-12.76 56.9,-6.97 58.65,-8.71 1.73,-1.74 19.15,-34.82 69.65,-77.79 50.51,-42.98 120.17,-66.19 120.17,-70.24 0,-4.06 -16.84,-16.26 -16.84,-16.26 z M 2914.77,3377.3 c -63.56,18.29 -110.59,47.9 -149.77,90.57 -39.18,42.67 -101.01,133.23 -134.97,267.33 -33.96,134.1 -30.48,269.07 -30.48,269.07 0,0 16.54,14.8 19.16,13.05 2.61,-1.73 21.77,-32.21 45.28,-65.3 23.51,-33.09 67.05,-96.66 124.52,-138.45 57.47,-41.8 215.95,-138.46 215.95,-138.46 0,0 -26.12,-91.43 -28.73,-151.52 -2.61,-60.07 26.99,-65.3 26.99,-65.3 0,0 0.87,-25.25 2.62,-49.64 1.73,-24.38 7.83,-47.89 7.83,-47.89 0,0 -34.83,-1.74 -98.4,16.54 z m -362.24,667.02 c 0,0 -41.8,-31.35 -161.1,-83.59 -119.29,-52.25 -198.54,-58.34 -198.54,-58.34 0,0 0,0 -1.73,5.22 -1.75,5.23 -6.1,8.71 -8.71,13.06 -2.61,4.36 61.82,116.68 138.45,197.67 76.63,80.98 175.03,114.94 175.03,114.94 0,0 -6.97,-41.8 6.96,-73.14 13.93,-31.35 50.51,-42.67 51.38,-46.15 0.87,-3.49 -1.74,-69.67 -1.74,-69.67 z m 1892.2,-217.7 c -5.22,9.58 -110.59,4.36 -195.92,-85.33 -85.34,-89.69 -121.91,-150.65 -158.48,-193.31 -36.58,-42.67 -60.96,-67.93 -71.41,-73.15 -10.45,-5.22 -16.54,-5.22 -16.54,-5.22 0,0 10.45,67.05 0.87,147.16 -9.58,80.11 -33.09,107.98 -32.22,119.3 0.87,11.32 46.15,63.56 25.25,123.65 -20.9,60.08 -112.33,105.36 -113.2,108.85 -0.87,3.47 -6.96,38.31 -84.46,59.2 -77.51,20.91 -175.9,47.03 -281.27,24.39 -105.36,-22.64 -175.03,-74.02 -177.64,-72.27 -2.61,1.73 -8.7,8.7 -13.93,11.32 -5.23,2.61 -9.58,6.96 -9.58,6.96 0,0 42.67,24.38 77.5,87.08 34.83,62.7 33.96,110.59 33.96,128 0,17.42 -1.73,32.22 -1.73,32.22 0,0 54.86,-47.89 107.97,-29.61 53.12,18.29 103.62,55.73 119.29,147.17 15.68,91.43 10.45,166.32 -17.41,227.27 -27.87,60.96 -93.17,109.72 -144.55,37.45 -51.38,-72.28 -67.92,-220.31 -75.76,-253.4 -7.84,-33.09 -6.97,-50.51 -13.06,-46.15 -6.1,4.35 -27.87,87.94 -81.86,136.71 -53.98,48.76 -103.62,53.12 -103.62,53.12 0,0 -5.22,29.6 -12.19,46.15 -6.96,16.54 -8.7,21.77 -8.7,21.77 0,0 58.34,87.08 20.89,175.03 -37.44,87.94 -164.58,121.9 -289.97,118.42 -155,-9.58 -312.61,-64.44 -464.99,-138.45 -152.39,-74.02 -281.26,-168.06 -383.15,-264.72 -101.88,-96.66 -177.64,-210.73 -219.43,-313.48 -41.8,-102.75 -52.25,-188.09 0,-247.3 52.24,-59.22 143.68,-73.15 188.09,-77.5 44.4,-4.36 57.47,-7.84 57.47,-7.84 0,0 6.09,-13.06 26.12,-15.67 20.03,-2.62 23.51,6.09 31.35,6.09 7.83,0 83.59,-5.23 92.3,5.23 8.71,10.44 7.84,31.35 7.84,31.35 0,0 95.78,25.25 167.19,56.59 71.4,31.35 121.04,60.09 121.04,60.09 0,0 3.48,-110.59 20.02,-210.73 16.55,-100.14 77.5,-217.7 122.78,-284.75 45.29,-67.04 134.97,-138.45 226.41,-156.74 91.43,-18.28 111.46,-12.19 111.46,-12.19 0,0 5.22,-26.12 13.93,-40.92 8.7,-14.81 15.68,-27.87 15.68,-27.87 0,0 -33.09,-106.23 -24.39,-197.66 8.71,-91.43 22.64,-110.6 97.53,-162.84 74.89,-52.25 156.74,-85.34 152.39,-87.96 -4.36,-2.6 -89.69,22.65 -155,38.33 -65.31,15.66 -132.37,33.95 -185.48,-18.29 C 2893,2759.92 2842.5,2692 2853.82,2665 c 11.32,-26.98 76.63,-26.12 195.93,-18.28 119.29,7.84 194.18,33.96 288.22,51.37 94.05,17.42 145.42,21.77 152.39,43.54 6.97,21.77 -31.35,47.03 -49.64,80.12 -18.28,33.09 -31.34,60.08 -32.22,74.02 -0.87,13.93 15.68,37.43 30.48,60.95 14.81,23.51 21.77,32.22 26.13,33.08 4.35,0.88 32.22,-2.61 32.22,-2.61 0,0 13.93,-30.47 39.18,-57.46 25.25,-27 75.76,-60.97 147.16,-27.87 71.4,33.09 93.18,84.46 99.27,89.69 6.1,5.22 125.39,36.57 186.35,72.27 60.95,35.71 106.23,88.82 136.71,139.33 30.48,50.5 48.77,80.98 48.77,80.98 0,0 66.17,1.74 76.62,29.61 10.45,27.86 -0.87,64.44 -7.84,76.63 -6.96,12.19 -8.7,19.15 -8.7,19.15 0,0 45.28,104.5 77.5,184.61 32.22,80.11 74.01,143.67 102.75,175.03 28.74,31.34 54.86,47.89 49.63,57.46"
         style="fill:#231f20;fill-opacity:1;fill-rule:nonzero;stroke:none"
         id="path3429" /><path
         d="m 2751.07,4844.57 c -75.27,-17.1 -157.62,-49.64 -152.39,-53.12 5.22,-3.48 20.03,-6.97 26.12,-12.19 6.1,-5.22 8.71,-7.84 8.71,-7.84 0,0 91.43,32.22 171.54,47.9 80.11,15.67 123.65,15.67 150.65,14.8 27,-0.87 55.73,-4.35 55.73,-4.35 0,0 -6.09,33.96 -40.93,40.92 -34.83,6.97 -161.96,-13.06 -219.43,-26.12"
         style="fill:#ecb75a;fill-opacity:1;fill-rule:nonzero;stroke:none"
         id="path3431" /><path
         d="m 2582.13,4787.1 c 0,0 -120.16,-50.51 -220.3,-109.72 -100.14,-59.21 -141.94,-90.56 -138.45,-94.04 3.48,-3.49 13.93,-6.97 19.15,-13.07 5.22,-6.09 6.97,-12.19 6.97,-12.19 0,0 70.53,56.6 186.34,120.17 115.82,63.57 186.35,84.46 188.09,87.08 1.74,2.61 -20.9,26.12 -41.8,21.77"
         style="fill:#ecb75a;fill-opacity:1;fill-rule:nonzero;stroke:none"
         id="path3433" /><path
         d="m 2212.05,4576.37 c 0,0 -102.75,-82.73 -138.45,-116.69 -35.71,-33.96 -51.38,-52.24 -47.89,-54.85 3.48,-2.62 11.31,-7.84 18.28,-14.81 6.97,-6.97 8.71,-10.45 8.71,-10.45 0,0 37.44,40.93 96.66,94.92 59.21,53.98 91.43,72.27 93.17,76.62 1.74,4.36 -8.71,32.23 -30.48,25.26"
         style="fill:#ecb75a;fill-opacity:1;fill-rule:nonzero;stroke:none"
         id="path3435" /><path
         d="m 2013.52,4396.99 c 0,0 -39.19,-47.9 -38.32,-51.38 0.87,-3.48 15.68,-0.87 23.51,-5.22 7.84,-4.36 13.06,-11.32 13.06,-11.32 0,0 29.61,36.57 33.09,45.28 3.49,8.7 -16.54,29.6 -31.34,22.64"
         style="fill:#ecb75a;fill-opacity:1;fill-rule:nonzero;stroke:none"
         id="path3437" /><path
         d="m 1966.49,4334.3 c 0,0 -75.76,-104.51 -101.88,-169.82 -26.13,-65.3 -38.31,-129.73 -31.35,-173.27 6.97,-43.54 34.83,-70.54 34.83,-70.54 0,0 -6.96,39.19 -0.87,65.31 6.1,26.13 13.94,28.73 13.94,28.73 0,0 -6.1,74.9 35.7,155.88 41.8,80.98 88.82,152.38 88.82,152.38 0,0 -19.16,23.52 -39.19,11.33"
         style="fill:#ecb75a;fill-opacity:1;fill-rule:nonzero;stroke:none"
         id="path3439" /><path
         d="m 1881.16,4003.39 c 0,0 -15.68,-31.35 -12.19,-61.82 3.48,-30.48 18.28,-50.51 57.47,-67.92 39.18,-17.42 73.14,-27 119.29,-31.35 46.15,-4.35 67.06,-2.61 75.76,-0.87 8.71,1.74 23.51,41.8 16.55,45.28 -6.97,3.49 -77.5,-9.58 -153.26,21.77 -75.76,31.35 -88.82,63.56 -94.05,73.14 -5.22,9.59 -2.61,27 -9.57,21.77"
         style="fill:#ecb75a;fill-opacity:1;fill-rule:nonzero;stroke:none"
         id="path3441" /><path
         d="m 2157.2,3918.06 c -27.02,0 -36.58,-17.42 -31.35,-22.64 5.22,-5.22 10.45,3.48 16.54,-2.61 6.1,-6.1 3.49,-23.51 -3.48,-40.06 -6.97,-16.55 -20.9,-20.03 -20.03,-24.38 0.87,-4.36 20.03,-20.9 43.54,5.22 23.51,26.13 29.6,60.96 24.38,70.53 -5.23,9.58 -21.77,13.94 -29.6,13.94"
         style="fill:#ecb75a;fill-opacity:1;fill-rule:nonzero;stroke:none"
         id="path3443" /><path
         d="m 2168.52,3828.37 c 0,-4.93 74.01,-6.1 81.84,1.74 7.84,7.84 7.84,23.51 -1.74,23.51 -9.57,0 -80.1,-22.64 -80.1,-25.25"
         style="fill:#ecb75a;fill-opacity:1;fill-rule:nonzero;stroke:none"
         id="path3445" /><path
         d="m 2196.38,3891.94 c 0,0 -1.74,-15.68 -6.97,-27.87 -5.22,-12.19 -13.06,-16.54 -8.7,-19.16 4.35,-2.61 201.15,53.12 212.47,62.7 11.32,9.58 13.06,45.28 -4.36,43.54 -17.41,-1.74 -48.76,-22.65 -102.75,-37.45 -53.99,-14.8 -86.21,-17.41 -89.69,-21.76"
         style="fill:#ecb75a;fill-opacity:1;fill-rule:nonzero;stroke:none"
         id="path3447" /><path
         d="m 2400.14,3954.63 c 0,0 7.84,-15.67 6.97,-26.99 -0.87,-11.32 -6.1,-12.19 -2.61,-15.68 3.48,-3.48 142.8,64.44 148.03,72.27 5.22,7.85 0,52.25 -3.49,49.65 -3.48,-2.62 -29.6,-22.65 -83.59,-47.03 -53.99,-24.39 -65.31,-32.22 -65.31,-32.22"
         style="fill:#ecb75a;fill-opacity:1;fill-rule:nonzero;stroke:none"
         id="path3449" /><path
         d="m 2606.51,4270.73 c 0,0 -20.02,14.8 -72.27,11.31 -52.24,-3.48 -68.79,-14.8 -68.79,-19.15 0,-4.35 12.19,-19.16 17.42,-21.77 5.22,-2.61 23.51,6.97 49.63,6.97 26.12,0 36.57,-5.23 36.57,-5.23 0,0 6.1,11.32 18.29,19.16 12.19,7.84 19.15,8.71 19.15,8.71"
         style="fill:#ecb75a;fill-opacity:1;fill-rule:nonzero;stroke:none"
         id="path3451" /><path
         d="m 2456.74,4262.02 c -9.58,-1.74 -47.89,-19.16 -45.28,-25.25 2.61,-6.1 15.68,-13.07 25.25,-14.81 9.58,-1.75 33.97,12.19 36.57,14.81 2.61,2.61 -6.96,9.57 -11.31,15.67 -4.36,6.1 -5.23,9.58 -5.23,9.58"
         style="fill:#ecb75a;fill-opacity:1;fill-rule:nonzero;stroke:none"
         id="path3453" /><path
         d="m 2398.4,4230.67 c 0,0 -33.96,-21.78 -65.31,-44.41 -31.35,-22.64 -42.67,-37.44 -40.05,-40.93 2.61,-3.47 37.44,-3.47 42.67,-0.87 5.22,2.61 17.41,14.81 51.37,40.06 33.96,25.25 45.28,28.73 45.28,28.73 0,0 -30.48,19.16 -33.96,17.42"
         style="fill:#ecb75a;fill-opacity:1;fill-rule:nonzero;stroke:none"
         id="path3455" /><path
         d="m 2280.84,4139.24 c 0,0 -31.34,-33.1 -26.12,-37.44 5.23,-4.35 39.19,-2.62 42.67,0 3.48,2.61 27.87,26.99 26.13,30.47 -1.75,3.48 -42.68,6.97 -42.68,6.97"
         style="fill:#ecb75a;fill-opacity:1;fill-rule:nonzero;stroke:none"
         id="path3457" /><path
         d="m 2244.27,4096.57 c 0,0 -17.41,-19.16 -36.57,-47.89 -19.16,-28.74 -33.96,-47.9 -27.86,-50.51 6.09,-2.62 31.34,-0.87 31.34,-0.87 0,0 8.71,16.55 40.05,53.12 31.36,36.57 36.58,42.66 36.58,42.66 l -43.54,3.49"
         style="fill:#ecb75a;fill-opacity:1;fill-rule:nonzero;stroke:none"
         id="path3459" /><path
         d="m 2170.25,3990.34 c 0,0 -32.21,-65.31 -28.73,-67.05 3.48,-1.75 12.19,0 20.9,0 8.7,0 11.32,-2.62 11.32,-2.62 0,0 39.18,66.18 35.7,69.67 -3.48,3.48 -33.96,2.6 -39.19,0"
         style="fill:#ecb75a;fill-opacity:1;fill-rule:nonzero;stroke:none"
         id="path3461" /><path
         d="m 2564.72,4235.02 c -3.49,1.75 -17.42,6.1 -30.48,6.1 -13.06,0 -26.12,0 -31.35,-11.33 -5.22,-11.31 -6.96,-37.43 6.97,-67.04 13.93,-29.61 43.54,-43.54 47.02,-35.7 3.48,7.83 4.35,51.37 4.35,56.6 0,5.22 -6.09,10.44 -6.96,24.37 -0.87,13.94 10.45,27 10.45,27"
         style="fill:#e58c5e;fill-opacity:1;fill-rule:nonzero;stroke:none"
         id="path3463" /><path
         d="m 2589.1,4300.33 c -21.02,1.21 -38.31,-1.74 -37.44,-6.1 0.87,-4.34 19.15,-2.61 35.7,-9.57 16.54,-6.97 20.03,-8.71 23.52,-11.33 3.47,-2.6 14.79,-0.87 16.54,-4.35 1.74,-3.48 -27.87,-5.23 -34.84,-9.57 -6.96,-4.36 -38.31,-45.29 -33.96,-55.73 4.36,-10.45 19.17,-20.03 33.96,-11.32 14.81,8.7 31.35,26.99 32.22,21.76 0.87,-5.23 -20.9,-11.32 -15.67,-27.86 5.22,-16.55 33.96,-20.9 32.22,-26.99 -1.74,-6.1 -16.55,-0.88 -21.77,3.48 -5.23,4.35 -13.07,10.45 -13.07,6.96 0,-3.48 0,-35.7 -2.61,-48.76 -2.6,-13.06 -2.6,-16.54 -1.74,-21.77 0.87,-5.22 8.72,-20.89 8.72,-20.89 0,0 21.76,40.05 55.72,63.57 33.96,23.5 51.38,27.85 51.38,27.85 0,0 -83.6,128.01 -128.88,130.62"
         style="fill:#e58c5e;fill-opacity:1;fill-rule:nonzero;stroke:none"
         id="path3465" /><path
         d="m 2605.64,4069.57 -6.09,-3.48 0,-51.38 13.93,12.19 c 0,0 -10.45,18.29 -11.32,24.39 -0.86,6.09 3.48,18.28 3.48,18.28"
         style="fill:#ecb75a;fill-opacity:1;fill-rule:nonzero;stroke:none"
         id="path3467" /><path
         d="m 2569.07,4180.17 c 0,0 -7.84,-57.48 -8.71,-111.47 -0.87,-53.99 -2.61,-88.81 -2.61,-88.81 0,0 26.13,21.77 30.48,26.99 4.35,5.23 5.22,52.24 8.71,101.01 3.48,48.76 5.22,79.24 5.22,79.24 0,0 -13.06,-6.09 -19.16,-6.09 -6.09,0 -13.93,-0.87 -13.93,-0.87"
         style="fill:#ecb75a;fill-opacity:1;fill-rule:nonzero;stroke:none"
         id="path3469" /><path
         d="m 2562.11,3965.95 c 0,0 -4.36,-52.25 -0.88,-56.6 3.49,-4.35 8.71,6.97 16.56,12.19 7.83,5.23 14.79,6.96 14.79,6.96 0,0 0,67.05 -2.61,67.05 -2.61,0 -26.12,-20.89 -27.86,-29.6"
         style="fill:#ecb75a;fill-opacity:1;fill-rule:nonzero;stroke:none"
         id="path3471" /><path
         d="m 2564.72,3897.16 c 0,0 -2.61,-55.73 8.71,-114.07 11.32,-58.34 25.25,-107.11 29.6,-110.59 4.36,-3.48 6.97,17.41 13.93,26.12 6.97,8.71 13.07,8.71 13.07,8.71 0,0 -13.07,49.63 -23.52,108.85 -10.44,59.21 -8.7,100.14 -12.19,103.62 -3.48,3.49 -27.86,-12.19 -29.6,-22.64"
         style="fill:#ecb75a;fill-opacity:1;fill-rule:nonzero;stroke:none"
         id="path3473" /><path
         d="m 2607.39,3662.92 c 0,0 32.22,-90.56 72.27,-155.87 40.05,-65.31 119.3,-126.26 121.91,-126.26 2.61,0 1.74,10.45 2.61,23.5 0.87,13.07 6.1,13.94 6.1,13.94 0,0 -82.73,63.57 -119.3,144.56 -36.57,80.98 -56.6,136.7 -61.82,139.32 -5.23,2.6 -21.77,-36.58 -21.77,-39.19"
         style="fill:#ecb75a;fill-opacity:1;fill-rule:nonzero;stroke:none"
         id="path3475" /><path
         d="m 2815.5,3412.14 c -8.39,-4.19 -6.96,-34.84 -3.48,-38.32 3.48,-3.48 52.25,-28.73 52.25,-28.73 0,0 -0.87,14.8 -1.75,23.51 -0.87,8.7 3.49,15.67 3.49,15.67 0,0 -47.03,29.6 -50.51,27.87"
         style="fill:#ecb75a;fill-opacity:1;fill-rule:nonzero;stroke:none"
         id="path3477" /><path
         d="m 2874.71,3380.79 c -5.22,-2.61 -7.83,-16.55 -0.86,-29.61 6.96,-13.06 20.02,-17.41 46.15,-24.38 26.12,-6.97 52.25,-7.84 52.25,-7.84 0,0 -6.1,13.93 -6.97,23.51 -0.87,9.58 -0.87,13.94 -0.87,13.94 0,0 -21.77,4.35 -48.77,13.06 -26.99,8.71 -40.93,11.32 -40.93,11.32"
         style="fill:#ecb75a;fill-opacity:1;fill-rule:nonzero;stroke:none"
         id="path3479" /><path
         d="m 2970.5,3353.79 c 0,0 9.58,-36.57 15.68,-36.57 6.09,0 64.44,-6.97 159.35,9.58 94.92,16.54 202.02,65.31 211.6,77.49 9.58,12.19 -19.16,13.94 -24.38,20.03 -5.23,6.1 -5.23,9.59 -5.23,9.59 0,0 -80.98,-47.03 -169.8,-63.57 -88.82,-22.64 -187.22,-16.55 -187.22,-16.55"
         style="fill:#ecb75a;fill-opacity:1;fill-rule:nonzero;stroke:none"
         id="path3481" /><path
         d="m 3067.16,3230.14 c -4.36,-4.35 -39.18,-141.06 -20.03,-218.57 19.16,-77.49 75.76,-128.87 176.77,-177.63 101.01,-48.76 161.96,-65.31 160.22,-71.41 -1.74,-6.09 -58.34,17.42 -111.46,26.13 -53.11,8.7 -192.44,50.5 -215.95,53.11 -23.51,2.62 -77.5,-10.45 -123.65,-53.98 -46.15,-43.54 -79.24,-93.18 -73.15,-117.56 6.1,-24.38 87.95,-28.73 230.76,-11.32 142.81,17.41 250.78,47.89 310.87,57.47 60.08,9.58 81.85,19.16 82.72,31.35 0.87,12.19 -34.83,38.31 -54.86,79.24 -20.02,40.92 -20.9,52.24 -27.86,55.73 -6.97,3.48 -9.58,-3.49 -7.84,6.1 1.74,9.58 13.06,36.57 33.09,66.17 20.03,29.62 27.87,34.83 25.26,38.32 -2.62,3.48 -132.37,11.32 -249.05,91.43 -116.69,80.12 -131.48,149.78 -135.84,145.42"
         style="fill:#e58c5e;fill-opacity:1;fill-rule:nonzero;stroke:none"
         id="path3483" /><path
         d="m 3039.3,3307.64 c 0,0 33.09,-94.04 98.39,-159.35 65.31,-65.31 146.29,-107.98 218.57,-127.14 72.27,-19.15 139.32,-28.73 139.32,-28.73 0,0 -33.09,94.92 -23.51,232.5 9.58,137.58 38.32,215.08 49.64,248.17 11.32,33.09 26.12,65.31 21.77,62.7 -4.36,-2.62 -77.5,-74.89 -155,-121.92 -77.5,-47.02 -149.78,-67.91 -149.78,-70.53 0,-2.61 17.42,-31.34 19.16,-33.96 1.74,-2.61 19.15,12.19 22.64,7.84 3.48,-4.35 -15.67,-12.19 -15.67,-14.8 0,-2.62 10.45,-17.42 13.06,-19.16 2.61,-1.74 14.8,13.93 17.41,10.45 2.62,-3.48 -10.45,-14.81 -10.45,-17.42 0,-2.61 22.65,-34.83 58.35,-68.79 35.7,-33.96 73.15,-61.82 73.15,-65.3 0,-3.49 -47.03,28.73 -80.99,64.43 -33.96,35.7 -55.73,65.31 -58.35,63.57 -2.6,-1.74 -16.53,-13.93 -17.41,-10.45 -0.87,3.48 11.32,11.32 11.32,17.41 0,6.1 -13.06,21.77 -16.54,20.9 -3.49,-0.87 -16.55,-19.16 -20.04,-14.8 -3.47,4.35 16.55,19.16 16.55,23.51 0,4.35 -20.02,34.83 -20.02,34.83 0,0 -43.54,-14.8 -101.02,-23.51 -57.46,-8.71 -90.55,-10.45 -90.55,-10.45"
         style="fill:#e58c5e;fill-opacity:1;fill-rule:nonzero;stroke:none"
         id="path3485" /><path
         d="m 3007.95,3530.56 c 0,0 -3.49,-40.93 0.87,-88.82 4.35,-47.89 15.67,-81.85 15.67,-81.85 0,0 68.8,3.48 114.07,13.06 45.28,9.58 68.8,18.29 68.8,18.29 0,0 -13.07,37.44 -32.22,96.65 -19.16,59.21 -19.16,80.11 -19.16,80.11 0,0 -21.77,-12.19 -22.64,-8.7 -0.87,3.49 20.03,17.41 20.03,17.41 0,0 -2.03,12.47 -3.19,35.11 -1.16,22.64 -5.22,33.67 -5.22,33.67 0,0 -57.48,-26.71 -90.57,-59.21 -33.09,-32.51 -45.3,-52.81 -46.44,-55.72"
         style="fill:#e58c5e;fill-opacity:1;fill-rule:nonzero;stroke:none"
         id="path3487" /><path
         d="m 2984.73,3501.52 c 0,0 4.65,-26.7 11.61,-29.6 6.97,-2.9 4.65,46.44 4.65,46.44 0,0 -16.84,-11.61 -16.26,-16.84"
         style="fill:#4099d8;fill-opacity:1;fill-rule:nonzero;stroke:none"
         id="path3489" /><path
         d="m 3153.08,3650.13 c 0,0 2.34,-62.7 6.4,-66.18 4.05,-3.49 13.33,4.65 14.5,1.17 1.16,-3.48 -15.66,-6.96 -14.5,-11.03 1.15,-4.07 7.53,-36.58 24.95,-95.79 17.42,-59.21 27.29,-82.44 30.19,-84.18 2.9,-1.74 93.48,24.98 197.38,96.95 103.91,71.98 128.28,103.34 131.19,109.72 2.91,6.39 8.14,27.87 8.14,27.87 0,0 -57.49,80.69 -63.87,83.59 -6.38,2.91 -101.6,9.29 -200.28,-15.1 -98.68,-24.38 -134.1,-47.02 -134.1,-47.02"
         style="fill:#e58c5e;fill-opacity:1;fill-rule:nonzero;stroke:none"
         id="path3491" /><path
         d="m 3500.24,3707.03 c 0,0 26.14,-37.74 30.78,-37.15 4.63,0.58 6.38,21.46 -2.33,30.76 -8.71,9.29 -27.88,11.04 -28.45,6.39"
         style="fill:#4099d8;fill-opacity:1;fill-rule:nonzero;stroke:none"
         id="path3493" /><path
         d="m 3708.65,3778.43 c 0,0 -78.36,-14.53 -111.45,-74.31 -33.09,-59.79 -44.7,-91.71 -43.55,-94.62 1.16,-2.91 50.51,42.96 50.51,42.96 0,0 23.79,42.95 52.82,76.04 29.03,33.09 54.58,49.93 51.67,49.93"
         style="fill:#e58c5e;fill-opacity:1;fill-rule:nonzero;stroke:none"
         id="path3495" /><path
         d="m 3843.91,3980.46 c -5.22,0 -52.83,-16.26 -66.77,-72 -13.93,-55.72 -5.8,-76.62 8.72,-81.84 14.51,-5.23 22.63,-5.23 22.63,-5.23 0,0 13.37,38.33 16.26,34.26 2.9,-4.07 -8.13,-33.09 -20.89,-59.22 -12.78,-26.12 -19.16,-66.19 12.19,-88.24 31.34,-22.06 67.31,-30.76 119,5.81 51.66,36.57 73.14,112.62 52.82,153.25 -20.31,40.65 -71.4,73.16 -95.78,87.67 -24.39,14.5 -48.18,25.54 -48.18,25.54"
         style="fill:#e58c5e;fill-opacity:1;fill-rule:nonzero;stroke:none"
         id="path3497" /><path
         d="m 3867.7,3985.68 c -9.04,3.23 -17.4,1.16 -15.08,-2.32 2.31,-3.49 20.31,-12.2 20.31,-12.2 0,0 2.9,11.63 -5.23,14.52"
         style="fill:#4099d8;fill-opacity:1;fill-rule:nonzero;stroke:none"
         id="path3499" /><path
         d="m 3859.59,3993.23 c 0,0 -111.47,62.11 -235.7,60.38 -124.24,-1.75 -216.54,-38.31 -266.46,-72.57 -49.92,-34.26 -59.22,-50.5 -60.37,-45.86 -1.15,4.64 8.14,15.09 19.74,24.96 11.61,9.87 14.5,12.19 15.09,15.68 0.58,3.48 -29.02,24.38 -97.53,19.16 -68.5,-5.23 -134.11,-41.82 -154.43,-55.16 -20.31,-13.35 -23.21,-21.47 -21.47,-27.28 1.75,-5.81 17.42,-52.24 18.58,-58.63 1.16,-6.39 -23.8,-48.77 -53.41,-138.17 -29.6,-89.41 -33.67,-113.79 -37.15,-142.81 -3.48,-29.02 -5.24,-56.32 -0.59,-59.22 4.65,-2.89 20.32,47.61 87.66,96.38 67.34,48.76 156.73,81.85 244.98,100.43 88.25,18.57 194.48,6.38 199.12,6.38 4.64,0 -64.45,77.21 -68.51,78.95 -4.05,1.74 -38.88,-24.97 -40.62,-20.9 -1.74,4.07 60.95,49.92 154.41,67.93 93.46,17.99 145.14,1.72 171.26,-4.08 26.13,-5.79 36.57,-12.18 36.57,-12.18 0,0 -16.84,44.7 5.8,96.36 22.64,51.67 78.39,69.68 83.03,70.25"
         style="fill:#4099d8;fill-opacity:1;fill-rule:nonzero;stroke:none"
         id="path3501" /><path
         d="m 3788.75,3735.48 c 0,0 -41.8,-17.43 -95.2,-103.92 -53.41,-86.49 -87.07,-194.47 -86.5,-199.7 0.57,-5.22 24.96,-55.14 71.98,-97.52 47.02,-42.39 71.99,-81.86 84.18,-123.66 12.19,-41.79 14.51,-52.82 16.83,-55.72 2.33,-2.91 37.75,23.79 60.38,90.56 22.64,66.76 26.71,113.2 24.39,111.46 -2.33,-1.74 -24.4,-31.93 -34.27,-51.66 -9.85,-19.75 -13.33,-34.25 -16.24,-31.36 -2.91,2.9 9.88,30.75 24.39,58.05 14.5,27.29 33.65,44.11 34.24,48.76 0.59,4.66 8.14,85.34 2.32,160.81 -5.8,75.47 -26.68,139.31 -30.75,143.97 -4.08,4.65 -29.03,10.45 -40.07,23.22 -11.02,12.77 -15.68,26.71 -15.68,26.71"
         style="fill:#e58c5e;fill-opacity:1;fill-rule:nonzero;stroke:none"
         id="path3503" /><path
         d="m 3602.99,3419.67 c 0,0 -23.22,-85.33 -16.83,-172.41 6.38,-87.08 66.75,-139.34 102.16,-138.17 35.42,1.17 78.96,27.29 84.19,37.74 5.22,10.45 -15.09,66.19 -38.32,113.2 -23.23,47.02 -59.8,67.92 -84.18,95.79 -24.38,27.86 -46.45,67.34 -47.02,63.85"
         style="fill:#e58c5e;fill-opacity:1;fill-rule:nonzero;stroke:none"
         id="path3505" /><path
         d="m 3558.87,3155.54 c 0,0 -1.75,-109.72 69.66,-134.1 71.4,-24.38 110.88,13.93 126.56,30.76 15.67,16.84 28.44,34.84 23.21,34.84 -5.22,0 -54.56,-39.49 -125.96,-19.75 -71.41,19.75 -94.06,97.55 -93.47,88.25"
         style="fill:#e58c5e;fill-opacity:1;fill-rule:nonzero;stroke:none"
         id="path3507" /><path
         d="m 3547.84,3019.7 c 0,0 8.71,-27.87 13.93,-31.34 5.23,-3.49 22.64,-2.34 22.64,-2.34 0,0 -35.41,38.33 -36.57,33.68"
         style="fill:#e58c5e;fill-opacity:1;fill-rule:nonzero;stroke:none"
         id="path3509" /><path
         d="m 3881.05,3205.46 c 0,0 -16.24,-58.04 -35.99,-104.49 -19.74,-46.45 -54.57,-93.48 -49.34,-96.38 5.22,-2.89 107.98,27.86 188.67,79.53 80.7,51.68 122.5,129.47 139.32,159.07 16.83,29.6 24.39,42.38 24.39,42.38 0,0 -12.21,-0.58 -42.38,4.64 -30.18,5.23 -51.08,12.78 -78.95,1.74 -27.86,-11.03 -55.74,-22.65 -96.95,-45.86 -41.22,-23.21 -48.2,-36.56 -48.77,-40.63"
         style="fill:#e58c5e;fill-opacity:1;fill-rule:nonzero;stroke:none"
         id="path3511" /><path
         d="m 4030.26,3301.25 c 0,0 -33.11,8.13 -77.22,-13.94 -44.11,-22.07 -65,-55.14 -61.52,-59.21 3.48,-4.06 21.48,15.67 69.66,40.06 48.18,24.38 72.56,30.19 69.08,33.09"
         style="fill:#e58c5e;fill-opacity:1;fill-rule:nonzero;stroke:none"
         id="path3513" /><path
         d="m 4106.3,3473.07 c -44.09,7.14 -103.91,-6.96 -109.13,-12.18 -5.23,-5.23 -7.57,-13.35 -22.07,-17.42 -14.51,-4.07 -23.21,-2.33 -24.96,-5.23 -1.74,-2.89 -15.09,-49.93 -24.38,-91.14 -9.29,-41.21 -26.72,-80.67 -22.06,-83.58 4.64,-2.91 47.62,45.85 112.62,45.85 65.02,0 101,-19.16 153.83,-15.08 52.83,4.06 77.8,37.72 47.61,95.19 -30.19,57.47 -71.99,77.2 -111.46,83.59"
         style="fill:#e58c5e;fill-opacity:1;fill-rule:nonzero;stroke:none"
         id="path3515" /><path
         d="m 4039.55,3478.88 c 0,0 62.1,11.6 106.8,-11.61 44.71,-23.22 65.61,-53.41 65.61,-53.41 0,0 40.62,95.79 67.91,165.45 27.29,69.66 65.04,142.81 100.44,183.45 35.4,40.64 55.73,56.88 56.89,60.37 1.16,3.49 -80.68,4.08 -154.42,-59.79 -73.73,-63.86 -116.68,-133.51 -160.8,-189.82 -44.13,-56.32 -88.82,-91.73 -82.43,-94.64"
         style="fill:#e58c5e;fill-opacity:1;fill-rule:nonzero;stroke:none"
         id="path3517" /><path
         d="m 3046.27,3918.92 c 0,0 -117.27,34.84 -169.51,76.06 -52.25,41.2 -145.71,167.17 -152.67,167.75 -6.97,0.59 -38.33,-13.34 -75.48,-47.02 -37.14,-33.67 -44.71,-59.22 -41.8,-65.02 2.92,-5.8 62.72,-103.34 112.63,-161.97 49.92,-58.63 99.26,-89.96 150.36,-120.74 51.08,-30.77 135.24,-84.76 135.24,-84.76 0,0 11.04,34.25 35.42,94.05 24.38,59.79 28.45,70.83 28.45,70.83 0,0 -5.23,22.64 -9.87,41.79 -4.65,19.16 -7.54,28.44 -12.77,29.03"
         style="fill:#4099d8;fill-opacity:1;fill-rule:nonzero;stroke:none"
         id="path3519" /><path
         d="m 2737.43,4159.84 c 0,0 22.07,-34.27 24.97,-34.27 2.9,0 10.45,6.98 10.45,8.72 0,1.74 -20.9,34.25 -22.64,34.82 -1.75,0.59 -13.37,-6.36 -12.78,-9.27"
         style="fill:#ecb75a;fill-opacity:1;fill-rule:nonzero;stroke:none"
         id="path3521" /><path
         d="m 3140.89,4511.63 c 0,0 -42.96,-1.17 -87.08,-14.52 -44.11,-13.34 -62.12,-27.28 -60.96,-30.76 1.18,-3.48 11.03,-8.14 8.72,-12.77 -2.32,-4.64 -29.02,12.76 -49.93,-16.26 -20.89,-29.03 -16.82,-45.28 -19.15,-47.03 -2.33,-1.74 -5.81,6.98 -6.97,2.91 -1.16,-4.07 -13.35,-51.09 -18.57,-81.85 -5.22,-30.76 -8.71,-39.47 -17.42,-55.73 -8.71,-16.26 -27.86,-62.11 -23.22,-107.98 4.64,-45.86 30.78,-81.84 68.51,-116.1 37.73,-34.25 130.6,-83.59 140.47,-84.17 9.88,-0.59 55.73,35.4 114.95,46.43 59.21,11.04 109.71,5.24 115.53,4.65 5.8,-0.57 62.09,44.7 91.13,105.66 29.04,60.95 26.69,124.8 22.64,140.48 -4.06,15.67 -20.9,29.62 -22.06,37.16 -1.15,7.54 3.47,29.59 2.9,35.4 -0.56,5.81 -31.93,93.48 -74.88,137.59 -42.96,44.12 -113.21,62.7 -116.1,57.47 -2.9,-5.22 36.56,-37.14 32.5,-41.79 -4.05,-4.65 -27.86,35.99 -58.63,41.21 -30.76,5.23 -51.09,-20.31 -52.82,-17.42 -1.75,2.9 10.44,17.42 10.44,17.42"
         style="fill:#e58c5e;fill-opacity:1;fill-rule:nonzero;stroke:none"
         id="path3523" /><path
         d="m 3053.24,4411.78 c 0,0 4.05,-22.65 4.05,-40.06 0,-17.42 0,-30.76 0,-30.76 0,0 -27.27,-8.13 -34.24,-20.9 -6.97,-12.77 -26.11,-25.56 -25.54,-53.42 0.57,-27.86 5.8,-37.14 7.53,-37.14 1.75,0 -2.89,16.26 -2.89,34.83 0,18.58 16.25,38.89 18.57,37.73 2.33,-1.16 5.23,-20.33 19.16,-28.45 13.93,-8.12 31.94,-15.67 31.94,-17.42 0,-1.74 1.15,-16.25 8.7,-40.05 7.55,-23.8 12.78,-33.09 11.03,-37.73 -1.74,-4.64 -31.94,-29.02 -42.96,-29.02 -11.03,0 -35.4,17.41 -44.7,29.6 -9.29,12.19 -6.39,14.51 -7.55,18.58 -1.15,4.06 -19.73,-8.13 -30.18,-20.9 -10.45,-12.78 -9.88,-26.71 -8.13,-27.87 1.74,-1.16 5.22,12.18 11.03,22.06 5.81,9.88 19.14,18.01 22.06,16.84 2.91,-1.17 7.54,-11.6 21.48,-24.38 13.94,-12.78 24.38,-18.59 24.38,-18.59 0,0 20.33,-24.37 37.74,-52.23 17.42,-27.86 31.92,-60.97 41.22,-63.86 9.29,-2.91 43.54,-5.8 74.88,37.15 31.35,42.95 31.94,63.87 36.58,98.12 4.64,34.24 6.96,76.04 6.96,76.04 0,0 15.66,1.17 32.5,-2.9 16.85,-4.07 16.84,-9.87 22.65,-8.14 5.81,1.75 -11.62,13.35 -27.87,17.42 -16.25,4.07 -24.96,1.74 -31.35,5.81 -6.38,4.06 -11.59,6.95 -12.76,4.64 -1.17,-2.31 13.36,-12.18 12.19,-19.73 -1.17,-7.55 -12.19,-34.25 -31.34,-52.25 -19.16,-18 -35.99,-13.36 -57.48,-7.55 -21.48,5.81 -43.54,3.49 -44.12,5.23 -0.59,1.74 -23.23,66.76 -19.16,75.47 4.07,8.7 21.47,14.5 30.77,32.51 9.29,17.99 3.48,41.8 7.55,42.37 4.06,0.58 28.44,-7.53 42.95,-26.12 14.52,-18.59 16.84,-28.46 19.74,-29.03 2.9,-0.57 -4.64,23.22 -23.79,40.64 -19.16,17.41 -46.45,22.06 -60.39,23.79 -13.93,1.75 -28.43,0 -28.43,0 0,0 -2.92,13.96 -4.07,32.52 -1.16,18.57 -5.81,44.11 -8.71,37.15"
         style="fill:#231f20;fill-opacity:1;fill-rule:nonzero;stroke:none"
         id="path3525" /><path
         d="m 3094.45,4174.35 c 0,0 -8.14,-12.19 -24.38,-21.48 -16.25,-9.29 -23.78,-7.55 -23.21,-10.44 0.57,-2.91 13.36,-19.74 31.34,-49.93 17.99,-30.19 33.67,-56.32 37.15,-58.05 3.49,-1.75 -17.41,47.6 22.64,73.72 40.06,26.13 66.18,5.8 70.25,5.8 4.07,0 6.95,15.09 13.35,53.99 6.39,38.9 7.55,42.4 5.81,41.22 -1.74,-1.16 -20.9,-36.57 -50.51,-41.79 -29.6,-5.23 -35.99,5.22 -53.99,8.12 -17.99,2.9 -24.96,1.76 -28.45,-1.16"
         style="fill:#a25067;fill-opacity:1;fill-rule:nonzero;stroke:none"
         id="path3527" /><path
         d="m 3204.17,4109.33 c -3.48,5.22 -34.83,13.35 -60.37,-3.49 -25.54,-16.83 -29.62,-40.05 -24.96,-57.46 4.65,-17.42 18.58,-23.23 45.86,-1.75 27.28,21.49 44.11,55.73 39.47,62.7"
         style="fill:#f08aa3;fill-opacity:1;fill-rule:nonzero;stroke:none"
         id="path3529" /><path
         d="m 3082.84,4038.52 c 0,0 -4.64,-23.81 5.8,-40.07 10.45,-16.26 38.33,-19.73 41.24,-15.66 2.89,4.05 -28.45,1.71 -38.33,19.72 -9.87,18 -3.48,40.07 -8.71,36.01"
         style="fill:#231f20;fill-opacity:1;fill-rule:nonzero;stroke:none"
         id="path3531" /><path
         d="m 2973.12,4354.3 c 0,0 -17.99,4.06 -23.22,-7.54 -5.22,-11.61 -4.05,-20.31 -1.15,-22.06 2.89,-1.74 1.14,12.19 7.53,19.16 6.4,6.97 19.18,6.37 16.84,10.44"
         style="fill:#231f20;fill-opacity:1;fill-rule:nonzero;stroke:none"
         id="path3533" /><path
         d="m 2982.41,4343.27 c -12.3,-0.66 -19.74,-15.07 -17.42,-26.7 2.33,-11.61 7.56,-18 5.81,-22.07 -1.74,-4.04 -12.77,-2.3 -23.22,-5.79 -10.45,-3.48 -17.42,-8.12 -15.09,-10.44 2.33,-2.33 9.29,2.32 19.15,5.21 9.87,2.91 36.56,3.49 41.21,5.23 4.66,1.75 11.06,15.68 11.62,31.35 0.57,15.67 -11.62,23.78 -22.06,23.21"
         style="fill:#231f20;fill-opacity:1;fill-rule:nonzero;stroke:none"
         id="path3535" /><path
         d="m 2890.11,4289.86 4.65,-11.02 c 0,0 6.36,19.73 2.31,19.15 -4.05,-0.57 -6.96,-8.13 -6.96,-8.13"
         style="fill:#ecb75a;fill-opacity:1;fill-rule:nonzero;stroke:none"
         id="path3537" /><path
         d="m 2784.45,4450.1 c -25.65,0 -63.86,-36 -61.54,-138.75 2.33,-102.75 42.96,-157.89 62.7,-182.86 19.75,-24.97 60.97,-35.42 74.32,-35.42 13.34,0 16.83,2.33 16.83,2.33 0,0 -5.81,5.81 -11.04,27.86 -5.22,22.06 -1.72,31.34 -4.05,34.25 -2.33,2.91 -16.85,2.91 -37.16,13.36 -20.31,10.45 -26.69,17.4 -25.53,21.47 1.15,4.07 16.24,-11.62 31.91,-19.16 15.67,-7.53 24.95,-8.11 27.87,-7.53 2.91,0.57 -31.34,25.52 -51.08,66.75 -19.74,41.22 -25.54,74.31 -22.64,74.31 2.9,0 6.96,-30.77 26.12,-68.5 19.16,-37.73 46.44,-63.28 49.92,-63.28 3.49,0 2.9,27.29 13.35,56.9 10.45,29.6 15.1,34.23 15.1,38.88 0,4.66 -36,97.53 -45.86,120.17 -9.87,22.64 -28.45,59.22 -59.22,59.22"
         style="fill:#eb8ea9;fill-opacity:1;fill-rule:nonzero;stroke:none"
         id="path3539" /><path
         d="m 3189.67,4402.5 c 0,0 -15.69,0 -22.07,-7.55 -6.38,-7.56 -6.37,-15.69 -4.06,-18.01 2.32,-2.31 3.49,7.56 8.71,14.52 5.23,6.97 20.9,8.72 17.42,11.04"
         style="fill:#231f20;fill-opacity:1;fill-rule:nonzero;stroke:none"
         id="path3541" /><path
         d="m 3198.95,4393.79 c -17.5,0.56 -24.37,-24.95 -17.99,-41.79 6.38,-16.85 16.25,-20.32 16.25,-22.64 0,-2.34 -5.81,-4.64 -3.49,-8.72 2.33,-4.07 7.57,8.13 34.26,16.83 26.7,8.72 44.12,7.55 45.28,9.87 1.15,2.32 -11.02,2.89 -24.38,1.74 -13.36,-1.16 -20.91,-6.38 -22.07,-4.64 -1.15,1.75 8.71,48.2 -27.86,49.35"
         style="fill:#231f20;fill-opacity:1;fill-rule:nonzero;stroke:none"
         id="path3543" /><path
         d="m 3547.25,4656.75 c -22.63,-0.77 -60.95,-17.98 -90.55,-123.06 -29.61,-105.08 -30.2,-146.88 -41.8,-188.67 -11.61,-41.8 -15.66,-58.05 -8.12,-65.61 7.53,-7.55 47.59,-6.37 79.52,30.2 31.93,36.58 62.7,77.78 74.89,107.39 12.19,29.61 16.83,42.39 18.57,38.32 1.75,-4.07 -3.48,-31.94 -37.73,-80.7 -34.24,-48.77 -34.24,-51.08 -33.09,-52.82 1.16,-1.74 23.8,7.54 49.93,23.22 26.12,15.67 38.31,35.98 40.05,33.09 1.74,-2.91 -23.21,-34.27 -51.08,-47.03 -27.86,-12.76 -48.76,-16.83 -50.5,-18.57 -1.74,-1.75 -20.9,-22.65 -44.13,-33.1 -23.22,-10.44 -38.31,-9.29 -38.31,-12.77 0,-3.48 44.12,-48.75 88.81,-49.33 44.71,-0.59 98.7,31.93 127.73,94.04 29.02,62.11 24.38,157.31 20.9,199.11 -3.48,41.8 -37.75,148.61 -105.09,146.29"
         style="fill:#eb8ea9;fill-opacity:1;fill-rule:nonzero;stroke:none"
         id="path3545" /><path
         d="m 3131.02,4559.23 c 0,0 -14.51,-15.1 -10.45,-19.73 4.07,-4.64 24.99,-1.16 27.3,2.32 2.31,3.48 -12.21,19.75 -16.85,17.41"
         style="fill:#ecb75a;fill-opacity:1;fill-rule:nonzero;stroke:none"
         id="path3547" /><path
         d="m 3110.71,4531.95 c 0,0 -12.19,-13.35 -10.45,-16.83 1.74,-3.49 47.04,2.91 49.35,4.07 2.32,1.15 9.29,13.92 6.97,15.08 -2.33,1.16 -45.87,-2.32 -45.87,-2.32"
         style="fill:#ecb75a;fill-opacity:1;fill-rule:nonzero;stroke:none"
         id="path3549" /><path
         d="m 3162.37,4621.35 c 0,0 -6.38,-15.66 -13.35,-29.02 -6.96,-13.36 -12.77,-22.07 -12.19,-25.55 0.59,-3.48 16.26,-21.48 24.39,-19.73 8.12,1.74 22.62,29.61 23.79,35.98 1.17,6.39 -20.89,40.06 -22.64,38.32"
         style="fill:#ecb75a;fill-opacity:1;fill-rule:nonzero;stroke:none"
         id="path3551" /><path
         d="m 3050.92,4860.53 c 0,0 16.26,-12.21 14.51,-25.55 -1.74,-13.35 1.16,-18.58 1.16,-18.58 0,0 70.24,-12.77 92.89,-66.18 22.63,-53.4 15.1,-83.59 12.19,-95.78 -2.92,-12.19 -4.07,-24.97 -4.07,-24.97 0,0 19.15,-38.3 22.64,-38.88 3.48,-0.59 38.3,60.38 30.76,121.91 -7.54,61.52 -37.74,99.26 -95.78,125.39 -58.04,26.13 -74.3,24.97 -74.3,22.64"
         style="fill:#ecb75a;fill-opacity:1;fill-rule:nonzero;stroke:none"
         id="path3553" /><path
         d="m 2994.03,4867.5 c 0,0 14.5,-11.05 19.73,-22.07 5.22,-11.02 6.39,-16.84 6.39,-16.84 l 38.89,-8.12 c 0,0 1.74,20.33 -15.09,34.83 -16.83,14.51 -49.92,15.11 -49.92,12.2"
         style="fill:#ecb75a;fill-opacity:1;fill-rule:nonzero;stroke:none"
         id="path3555" /><path
         d="m 3365.56,3455.07 c 0,0 -29.6,-14.51 -30.18,-17.41 -0.59,-2.9 3.47,-15.67 20.31,-18.57 16.85,-2.9 19.74,-4.07 19.74,-4.07 0,0 16.24,9.86 16.83,12.19 0.58,2.33 -10.45,5.83 -18.57,13.36 -8.13,7.54 -8.13,14.5 -8.13,14.5"
         style="fill:#ecb75a;fill-opacity:1;fill-rule:nonzero;stroke:none"
         id="path3557" /><path
         d="m 3372.54,3456.81 c 0,0 0.57,-15.08 11.6,-18.57 11.04,-3.48 22.64,-4.06 22.64,-4.06 0,0 49.33,31.35 49.92,35.41 0.58,4.07 -15.68,2.9 -22.64,8.13 -6.97,5.22 -11.61,12.19 -13.35,12.19 -1.74,0 -13.95,-8.14 -26.71,-17.42 -12.76,-9.28 -21.46,-11.62 -21.46,-15.68"
         style="fill:#ecb75a;fill-opacity:1;fill-rule:nonzero;stroke:none"
         id="path3559" /><path
         d="m 3430,3496.87 c 0,0 -0.6,-8.14 11.02,-13.93 11.62,-5.79 22.64,-5.22 29.61,-2.9 6.97,2.33 34.26,29.61 55.16,50.51 20.9,20.9 29.61,29.6 29.61,29.6 0,0 5.79,15.09 17.98,41.21 12.19,26.13 22.07,37.73 16.85,34.84 -5.23,-2.9 -41.8,-48.17 -89.41,-85.91 -47.61,-37.74 -70.23,-51.1 -70.82,-53.42"
         style="fill:#ecb75a;fill-opacity:1;fill-rule:nonzero;stroke:none"
         id="path3561" /><path
         d="m 3666.85,3728.52 c 0,0 -42.38,-39.47 -73.73,-104.5 -31.35,-65.02 -52.26,-105.08 -49.34,-108.56 2.91,-3.49 13.36,8.13 26.7,9.29 13.35,1.16 20.32,1.74 20.32,1.74 0,0 30.76,65.01 59.21,115.52 28.45,50.5 63.87,77.79 63.87,82.44 0,4.64 -39.47,9.88 -47.03,4.07"
         style="fill:#ecb75a;fill-opacity:1;fill-rule:nonzero;stroke:none"
         id="path3563" /><path
         d="m 3800.37,3813.86 c 0,0 -37.73,-6.98 -74.3,-31.94 -36.57,-24.97 -55.16,-44.12 -53.42,-45.87 1.74,-1.74 16.28,4.65 29.04,1.75 12.76,-2.9 17.98,-9.28 17.98,-9.28 0,0 21.47,16.24 40.05,27.28 18.59,11.03 29.05,15.67 29.05,15.67 0,0 16.24,41.22 11.6,42.39"
         style="fill:#ecb75a;fill-opacity:1;fill-rule:nonzero;stroke:none"
         id="path3565" /><path
         d="m 3785.86,3760.44 c 0,0 -67.36,-23.22 -109.73,-91.72 -42.37,-68.51 -89.97,-165.45 -86.49,-168.93 3.48,-3.49 15.09,-2.91 15.09,-2.91 0,0 37.16,89.98 76.06,156.16 38.88,66.18 106.8,103.91 105.07,107.4"
         style="fill:#ecb75a;fill-opacity:1;fill-rule:nonzero;stroke:none"
         id="path3567" /><path
         d="m 3786.44,3748.24 c 0,0 -38.33,-15.1 -77.21,-66.17 -38.89,-51.08 -52.25,-82.43 -52.25,-82.43 l 10.45,-1.17 c 0,0 20.31,40.06 57.47,85.92 37.16,45.87 62.12,56.89 62.12,56.89 l -0.58,6.96"
         style="fill:#ecb75a;fill-opacity:1;fill-rule:nonzero;stroke:none"
         id="path3569" /><path
         d="m 3651.75,3589.77 c 0,0 -24.97,-44.11 -45.86,-102.18 -20.9,-58.05 -30.76,-102.16 -29.02,-102.16 1.74,0 12.77,4.64 12.77,4.64 0,0 13.94,58.04 37.73,119.58 23.79,61.54 33.09,80.12 33.09,80.12 0,0 -5.81,3.47 -8.71,0"
         style="fill:#ecb75a;fill-opacity:1;fill-rule:nonzero;stroke:none"
         id="path3571" /><path
         d="m 3582.09,3488.18 c 0,0 -40.04,-131.22 -34.25,-133.53 5.8,-2.31 15.09,4.07 15.09,4.07 0,0 9.86,37.16 20.32,74.89 10.44,37.73 17.98,54.56 17.41,56.88 -0.57,2.33 -16.25,2.34 -18.57,-2.31"
         style="fill:#ecb75a;fill-opacity:1;fill-rule:nonzero;stroke:none"
         id="path3573" /><path
         d="m 3587.9,3522.42 c 0,0 -18,-1.15 -28.45,-6.96 -10.45,-5.81 -19.73,-9.28 -22.05,-13.35 -2.34,-4.06 -26.73,-74.9 -23.82,-76.05 2.92,-1.17 11.61,12.18 26.13,17.41 14.52,5.23 22.06,2.92 22.06,2.92 0,0 28.46,73.71 26.13,76.03"
         style="fill:#ecb75a;fill-opacity:1;fill-rule:nonzero;stroke:none"
         id="path3575" /><path
         d="m 3510.11,3415.61 c 0,0 -16.84,-59.79 -12.77,-62.12 4.07,-2.32 12.18,11.62 27.28,21.49 15.1,9.86 21.48,6.97 21.48,6.97 0,0 14.51,52.23 11.61,56.29 -2.9,4.07 -15.68,1.75 -27.87,-6.96 -12.19,-8.71 -19.73,-15.67 -19.73,-15.67"
         style="fill:#ecb75a;fill-opacity:1;fill-rule:nonzero;stroke:none"
         id="path3577" /><path
         d="m 3492.69,3337.82 c 0,0 -15.09,-57.48 -16.83,-116.68 -1.75,-59.22 1.15,-114.96 3.48,-116.12 2.32,-1.16 8.13,13.37 19.74,27.3 11.61,13.93 22.06,12.76 22.06,12.76 0,0 -0.57,58.06 4.07,120.75 4.63,62.7 18,105.08 13.93,108.56 -4.08,3.49 -43.56,-31.34 -46.45,-36.57"
         style="fill:#ecb75a;fill-opacity:1;fill-rule:nonzero;stroke:none"
         id="path3579" /><path
         d="m 3542.62,3336.65 c 0,0 -11.62,-60.96 -14.52,-134.1 -2.89,-73.15 2.32,-110.28 4.64,-110.88 2.32,-0.58 3.49,8.73 12.19,14.53 8.71,5.79 8.71,5.79 8.71,5.79 0,0 -5.8,69.08 -4.64,127.13 1.16,58.06 13.94,108.58 12.77,110.89 -1.16,2.31 -16.82,-8.72 -19.15,-13.36"
         style="fill:#ecb75a;fill-opacity:1;fill-rule:nonzero;stroke:none"
         id="path3581" /><path
         d="m 3571.07,3370.32 c 0,0 -9.86,-32.49 -12.19,-75.46 -2.33,-42.96 -5.24,-78.37 -2.91,-80.11 2.32,-1.73 8.12,12.76 15.67,18.57 7.56,5.82 9.29,6.97 9.29,6.97 0,0 -2.91,40.64 -0.58,78.96 2.32,38.31 9.29,61.54 7.55,62.7 -1.74,1.15 -15.66,-8.73 -16.83,-11.63"
         style="fill:#ecb75a;fill-opacity:1;fill-rule:nonzero;stroke:none"
         id="path3583" /><path
         d="m 3481.66,3094.59 c 0,0 4.66,-47.04 7.55,-48.2 2.91,-1.15 6.4,16.83 17.42,31.35 11.02,14.53 18.58,14.53 18.58,14.53 0,0 -1.17,40.06 -4.64,44.11 -3.49,4.06 -14.51,-2.91 -24.39,-14.51 -9.88,-11.61 -14.52,-27.28 -14.52,-27.28"
         style="fill:#ecb75a;fill-opacity:1;fill-rule:nonzero;stroke:none"
         id="path3585" /><path
         d="m 3493.27,3033.62 c 0,0 6.97,-51.07 36.57,-88.81 29.61,-37.74 71.41,-49.93 73.74,-48.19 2.32,1.74 -6.99,16.27 -7.55,27.29 -0.58,11.03 -0.58,20.9 -0.58,20.9 0,0 -37.17,21.47 -49.93,56.89 -12.76,35.41 -16.25,77.78 -18.57,80.11 -2.33,2.33 -15.68,0.01 -24.39,-18.57 -8.7,-18.59 -9.29,-29.62 -9.29,-29.62"
         style="fill:#ecb75a;fill-opacity:1;fill-rule:nonzero;stroke:none"
         id="path3587" /><path
         d="m 3535.65,3083.55 c 0,0 0.58,-31.35 2.9,-37.16 2.33,-5.79 39.47,-59.2 78.37,-70.23 38.9,-11.04 77.79,-4.07 85.34,-0.59 7.55,3.49 45.29,51.08 51.68,63.86 6.38,12.77 -44.71,-45.28 -113.2,-29.02 -68.5,16.25 -80.7,96.37 -84.19,96.37 -3.48,0 -20.32,-16.26 -20.9,-23.23"
         style="fill:#ecb75a;fill-opacity:1;fill-rule:nonzero;stroke:none"
         id="path3589" /><path
         d="m 3555.4,3197.91 c 0,0 8.71,-52.83 36.56,-83.59 27.87,-30.77 67.33,-46.43 71.98,-44.12 4.66,2.32 2.33,33.08 0.59,35.41 -1.74,2.32 -38.89,16.83 -56.89,52.25 -18,35.41 -22.05,72.57 -26.12,74.31 -4.07,1.74 -25.54,-23.81 -26.12,-34.26"
         style="fill:#ecb75a;fill-opacity:1;fill-rule:nonzero;stroke:none"
         id="path3591" /><path
         d="m 3672.08,3100.97 c 0,0 -2.9,-27.29 5.22,-31.93 8.13,-4.65 37.74,-5.23 69.08,8.7 31.35,13.93 41.8,22.64 41.8,22.64 0,0 32.52,84.77 28.44,82.44 -4.06,-2.32 -33.68,-49.35 -74.31,-66.18 -40.62,-16.83 -69.06,-12.19 -70.23,-15.67"
         style="fill:#ecb75a;fill-opacity:1;fill-rule:nonzero;stroke:none"
         id="path3593" /><path
         d="m 3601.84,2940.75 c 0,0 -2.35,-13.36 2.31,-26.13 4.65,-12.77 11.61,-19.17 16.25,-20.33 4.64,-1.15 47.05,5.24 49.35,9.88 2.31,4.64 -8.71,11.6 -12.19,19.73 -3.48,8.13 -5.22,16.26 -5.22,16.26 0,0 -14.52,-1.74 -28.45,-1.74 -13.93,0 -22.05,2.33 -22.05,2.33"
         style="fill:#ecb75a;fill-opacity:1;fill-rule:nonzero;stroke:none"
         id="path3595" /><path
         d="m 3662.2,2942.48 c 0,0 -1.16,-13.35 4.07,-21.48 5.22,-8.12 11.03,-12.77 19.74,-11.03 8.71,1.74 47.6,24.39 80.69,69.09 33.09,44.69 58.06,89.99 58.64,99.27 0.57,9.28 -29.61,11.62 -42.39,-3.49 -12.77,-15.09 -7.55,-29.02 -52.83,-78.37 -45.28,-49.34 -66.76,-49.92 -67.92,-53.99"
         style="fill:#ecb75a;fill-opacity:1;fill-rule:nonzero;stroke:none"
         id="path3597" /><path
         d="m 3870.04,3343.05 c 0,0 -12.19,-52.85 -34.25,-128.31 -22.08,-75.46 -47.04,-121.31 -44.71,-124.22 2.33,-2.91 8.13,2.88 22.06,2.31 13.94,-0.56 17.42,-4.05 17.42,-4.05 0,0 26.69,49.93 49.33,135.84 22.65,85.91 31.36,114.37 30.2,121.91 -1.16,7.53 -11.61,11.02 -20.9,9.28 -9.3,-1.75 -19.15,-12.76 -19.15,-12.76"
         style="fill:#ecb75a;fill-opacity:1;fill-rule:nonzero;stroke:none"
         id="path3599" /><path
         d="m 3879.31,3395.29 c 0,0 -9.27,-38.33 -6.38,-39.48 2.9,-1.16 9.88,4.64 21.48,5.22 11.61,0.59 17.99,-5.22 17.99,-5.22 0,0 9.88,39.47 8.14,41.8 -1.74,2.32 -11.05,9.29 -20.33,7.55 -9.28,-1.75 -20.9,-9.87 -20.9,-9.87"
         style="fill:#ecb75a;fill-opacity:1;fill-rule:nonzero;stroke:none"
         id="path3601" /><path
         d="m 3935.05,3444.62 c 0,0 -15.68,-84.74 -25.55,-121.32 -9.86,-36.57 -10.46,-46.44 -9.29,-48.18 1.17,-1.74 18.02,56.3 27.29,98.69 9.28,42.38 16.25,70.24 15.09,73.73 -1.15,3.48 -7.54,-2.92 -7.54,-2.92"
         style="fill:#ecb75a;fill-opacity:1;fill-rule:nonzero;stroke:none"
         id="path3603" /><path
         d="m 3952.46,3601.36 c 0,0 -0.58,-31.34 -6.97,-74.88 -6.38,-43.54 -8.12,-69.67 -8.12,-69.67 l 7.55,-1.74 c 0,0 5.79,31.94 11.03,80.7 5.21,48.77 4.64,67.34 4.64,67.34 l -8.13,-1.75"
         style="fill:#ecb75a;fill-opacity:1;fill-rule:nonzero;stroke:none"
         id="path3605" /><path
         d="m 3945.49,3635.63 c -2.8,5.62 -13.92,3.46 -19.73,0.57 -5.8,-2.9 -16.84,-8.11 -16.84,-12.76 0,-4.66 0.6,-44.14 -9.28,-114.37 -9.88,-70.24 -18.02,-99.84 -15.1,-101.59 2.91,-1.74 8.14,4.64 19.74,4.64 11.6,0 17.41,-4.64 17.41,-4.64 0,0 12.76,65.61 20.31,127.14 7.56,61.52 4.64,98.69 3.49,101.01"
         style="fill:#ecb75a;fill-opacity:1;fill-rule:nonzero;stroke:none"
         id="path3607" /><path
         d="m 3961.75,3548.55 c 0,0 -2.9,-31.95 -6.37,-58.64 -3.49,-26.7 -5.82,-33.66 -4.08,-38.89 1.74,-5.22 23.81,-11.03 33.68,4.64 9.86,15.68 16.23,44.71 16.23,75.48 0,30.75 -4.04,42.93 -11.59,40.62 -7.55,-2.31 -26.71,-18.55 -27.87,-23.21"
         style="fill:#ecb75a;fill-opacity:1;fill-rule:nonzero;stroke:none"
         id="path3609" /><path
         d="m 3964.08,3670.46 c 0,0 1.74,-25.55 1.15,-54.58 -0.58,-29.02 -1.75,-52.83 -0.58,-54.57 1.17,-1.74 8.14,9.28 18.58,13.93 10.45,4.66 15.68,0.59 15.68,0.59 0,0 -0.02,27.87 -4.66,59.21 -4.63,31.35 -9.29,46.44 -12.18,48.76 -2.91,2.33 -17.99,-8.69 -17.99,-13.34"
         style="fill:#ecb75a;fill-opacity:1;fill-rule:nonzero;stroke:none"
         id="path3611" /><path
         d="m 3953.04,3720.96 c 0,0 9.87,-38.32 11.61,-39.48 1.74,-1.16 13.94,6.97 15.1,9.29 1.16,2.32 -10.45,30.77 -14.52,35.99 -4.07,5.22 -12.19,-5.8 -12.19,-5.8"
         style="fill:#ecb75a;fill-opacity:1;fill-rule:nonzero;stroke:none"
         id="path3613" /><path
         d="m 3945.49,3712.83 c 0,0 4.65,-19.15 5.81,-51.08 1.16,-31.93 2.33,-48.19 2.33,-48.19 l 7.53,-0.58 c 0,0 0.57,39.49 -3.48,62.7 -4.05,23.21 -9.86,40.06 -9.86,40.06 l -2.33,-2.91"
         style="fill:#ecb75a;fill-opacity:1;fill-rule:nonzero;stroke:none"
         id="path3615" /><path
         d="m 3936.78,3708.77 c 0,0 -9.86,-5.82 -15.09,-8.13 -5.22,-2.32 -13.35,-6.38 -13.35,-6.38 0,0 0,-56.32 3.49,-57.48 3.48,-1.15 5.8,5.24 19.73,7.55 13.93,2.32 16.26,0 16.26,0 0,0 -6.4,66.19 -11.04,64.44"
         style="fill:#ecb75a;fill-opacity:1;fill-rule:nonzero;stroke:none"
         id="path3617" /></g></g></svg>
